<svg width="23" height="24" viewBox="0 0 23 24" fill="none" xmlns="http://www.w3.org/2000/svg">
<path fill-rule="evenodd" clip-rule="evenodd" d="M15 6.6038C15 8.66705 13.3883 10.3397 11.4 10.3397C9.41182 10.3397 7.80004 8.66705 7.80004 6.6038C7.80004 4.54056 9.41182 2.86795 11.4 2.86795C13.3883 2.86795 15 4.54056 15 6.6038ZM16.8 6.6038C16.8 9.69868 14.3824 12.2076 11.4 12.2076C8.4177 12.2076 6.00004 9.69868 6.00004 6.6038C6.00004 3.50892 8.4177 1.00003 11.4 1.00003C14.3824 1.00003 16.8 3.50892 16.8 6.6038ZM2.88996 22.0254C3.6043 17.1143 7.62594 14.7312 11.7473 14.8035C15.8893 14.8761 19.7081 17.4091 20.1037 21.9698C20.1482 22.4834 20.5857 22.8624 21.0806 22.8163C21.5758 22.7701 21.941 22.3162 21.8964 21.8023C21.392 15.9858 16.5108 13.0188 11.7777 12.9358C7.02414 12.8524 1.99578 15.6579 1.11013 21.7467C1.03594 22.2566 1.37423 22.7325 1.86571 22.8095C2.3572 22.8865 2.81577 22.5355 2.88996 22.0254Z" fill="black"/>
<path fill-rule="evenodd" clip-rule="evenodd" d="M15 6.6038C15 8.66705 13.3883 10.3397 11.4 10.3397C9.41182 10.3397 7.80004 8.66705 7.80004 6.6038C7.80004 4.54056 9.41182 2.86795 11.4 2.86795C13.3883 2.86795 15 4.54056 15 6.6038ZM16.8 6.6038C16.8 9.69868 14.3824 12.2076 11.4 12.2076C8.4177 12.2076 6.00004 9.69868 6.00004 6.6038C6.00004 3.50892 8.4177 1.00003 11.4 1.00003C14.3824 1.00003 16.8 3.50892 16.8 6.6038ZM2.88996 22.0254C3.6043 17.1143 7.62594 14.7312 11.7473 14.8035C15.8893 14.8761 19.7081 17.4091 20.1037 21.9698C20.1482 22.4834 20.5857 22.8624 21.0806 22.8163C21.5758 22.7701 21.941 22.3162 21.8964 21.8023C21.392 15.9858 16.5108 13.0188 11.7777 12.9358C7.02414 12.8524 1.99578 15.6579 1.11013 21.7467C1.03594 22.2566 1.37423 22.7325 1.86571 22.8095C2.3572 22.8865 2.81577 22.5355 2.88996 22.0254Z" fill="black"/>
<path d="M11.4001 10.5472C13.4987 10.5472 15.2001 8.78168 15.2001 6.6038H14.8001C14.8001 8.55242 13.2778 10.1321 11.4001 10.1321V10.5472ZM7.60005 6.6038C7.60005 8.78168 9.30137 10.5472 11.4001 10.5472V10.1321C9.52229 10.1321 8.00005 8.55242 8.00005 6.6038H7.60005ZM11.4001 2.6604C9.30137 2.6604 7.60005 4.42593 7.60005 6.6038H8.00005C8.00005 4.65518 9.52229 3.0755 11.4001 3.0755V2.6604ZM15.2001 6.6038C15.2001 4.42593 13.4987 2.6604 11.4001 2.6604V3.0755C13.2778 3.0755 14.8001 4.65518 14.8001 6.6038H15.2001ZM11.4001 12.4151C14.4929 12.4151 17 9.81331 17 6.6038H16.6C16.6 9.58405 14.2719 12 11.4001 12V12.4151ZM5.80005 6.6038C5.80005 9.81331 8.30725 12.4151 11.4001 12.4151V12C8.52817 12 6.20005 9.58405 6.20005 6.6038H5.80005ZM11.4001 0.79248C8.30725 0.79248 5.80005 3.39429 5.80005 6.6038H6.20005C6.20005 3.62355 8.52817 1.20757 11.4001 1.20757V0.79248ZM17 6.6038C17 3.39429 14.4929 0.79248 11.4001 0.79248V1.20757C14.2719 1.20757 16.6 3.62355 16.6 6.6038H17ZM11.7507 14.596C7.55831 14.5224 3.42549 16.9532 2.69221 21.9945L3.08773 22.0563C3.78315 17.2755 7.69359 14.94 11.744 15.011L11.7507 14.596ZM20.3029 21.9511C19.8953 17.2518 15.9594 14.6698 11.7507 14.596L11.744 15.011C15.8193 15.0825 19.521 17.5664 19.9045 21.9884L20.3029 21.9511ZM21.0628 22.6096C20.6777 22.6455 20.3375 22.3508 20.3029 21.9511L19.9045 21.9884C19.9589 22.6163 20.4936 23.0795 21.0986 23.0229L21.0628 22.6096ZM21.6972 21.821C21.7318 22.2205 21.4478 22.5735 21.0628 22.6096L21.0986 23.0229C21.7036 22.9664 22.15 22.4116 22.0956 21.7838L21.6972 21.821ZM11.7744 13.1433C16.4426 13.2252 21.2048 16.1446 21.6972 21.821L22.0956 21.7838C21.579 15.8269 16.579 12.8124 11.7811 12.7283L11.7744 13.1433ZM1.30789 21.7776C2.17443 15.8203 7.09039 13.0612 11.7744 13.1433L11.7811 12.7283C6.95793 12.6437 1.81714 15.4955 0.912375 21.7157L1.30789 21.7776ZM1.89558 22.6042C1.51331 22.5445 1.25019 22.1744 1.30789 21.7776L0.912375 21.7157C0.8217 22.339 1.23517 22.9207 1.83587 23.0148L1.89558 22.6042ZM2.69221 21.9945C2.63451 22.3911 2.27784 22.6642 1.89558 22.6042L1.83587 23.0148C2.43658 23.1088 2.99706 22.6798 3.08773 22.0563L2.69221 21.9945Z" fill="black"/>
</svg>
