<svg width="106" height="41" viewBox="0 0 106 41" fill="none" xmlns="http://www.w3.org/2000/svg">
<circle cx="7" cy="23" r="7" fill="#D3DE32"/>
<path d="M16.475 26.9H9.925L8.875 30H4.4L10.75 12.45H15.7L22.05 30H17.525L16.475 26.9ZM15.375 23.6L13.2 17.175L11.05 23.6H15.375ZM30.3326 30.175C29.0493 30.175 27.8993 29.9667 26.8826 29.55C25.866 29.1333 25.0493 28.5167 24.4326 27.7C23.8326 26.8833 23.516 25.9 23.4826 24.75H28.0326C28.0993 25.4 28.3243 25.9 28.7076 26.25C29.091 26.5833 29.591 26.75 30.2076 26.75C30.841 26.75 31.341 26.6083 31.7076 26.325C32.0743 26.025 32.2576 25.6167 32.2576 25.1C32.2576 24.6667 32.1076 24.3083 31.8076 24.025C31.5243 23.7417 31.166 23.5083 30.7326 23.325C30.316 23.1417 29.716 22.9333 28.9326 22.7C27.7993 22.35 26.8743 22 26.1576 21.65C25.441 21.3 24.8243 20.7833 24.3076 20.1C23.791 19.4167 23.5326 18.525 23.5326 17.425C23.5326 15.7917 24.1243 14.5167 25.3076 13.6C26.491 12.6667 28.0326 12.2 29.9326 12.2C31.866 12.2 33.4243 12.6667 34.6076 13.6C35.791 14.5167 36.4243 15.8 36.5076 17.45H31.8826C31.8493 16.8833 31.641 16.4417 31.2576 16.125C30.8743 15.7917 30.3826 15.625 29.7826 15.625C29.266 15.625 28.8493 15.7667 28.5326 16.05C28.216 16.3167 28.0576 16.7083 28.0576 17.225C28.0576 17.7917 28.3243 18.2333 28.8576 18.55C29.391 18.8667 30.2243 19.2083 31.3576 19.575C32.491 19.9583 33.4076 20.325 34.1076 20.675C34.8243 21.025 35.441 21.5333 35.9576 22.2C36.4743 22.8667 36.7326 23.725 36.7326 24.775C36.7326 25.775 36.4743 26.6833 35.9576 27.5C35.4576 28.3167 34.7243 28.9667 33.7576 29.45C32.791 29.9333 31.6493 30.175 30.3326 30.175ZM51.9885 12.45V15.875H47.3385V30H43.0635V15.875H38.4135V12.45H51.9885ZM63.084 30L59.434 23.375H58.409V30H54.134V12.45H61.309C62.6923 12.45 63.8673 12.6917 64.834 13.175C65.8173 13.6583 66.5507 14.325 67.034 15.175C67.5173 16.0083 67.759 16.9417 67.759 17.975C67.759 19.1417 67.4257 20.1833 66.759 21.1C66.109 22.0167 65.1423 22.6667 63.859 23.05L67.909 30H63.084ZM58.409 20.35H61.059C61.8423 20.35 62.4257 20.1583 62.809 19.775C63.209 19.3917 63.409 18.85 63.409 18.15C63.409 17.4833 63.209 16.9583 62.809 16.575C62.4257 16.1917 61.8423 16 61.059 16H58.409V20.35ZM79.4766 30.189C77.7306 30.189 76.1196 29.784 74.6436 28.974C73.1856 28.146 72.0246 27.003 71.1606 25.545C70.3146 24.069 69.8916 22.413 69.8916 20.577C69.8916 18.741 70.3146 17.094 71.1606 15.636C72.0246 14.178 73.1856 13.044 74.6436 12.234C76.1196 11.406 77.7306 10.992 79.4766 10.992C81.2406 10.992 82.8516 11.406 84.3096 12.234C85.7856 13.044 86.9466 14.178 87.7926 15.636C88.6386 17.094 89.0616 18.741 89.0616 20.577C89.0616 22.413 88.6386 24.069 87.7926 25.545C86.9466 27.003 85.7856 28.146 84.3096 28.974C82.8516 29.784 81.2406 30.189 79.4766 30.189ZM79.4766 27.516C80.7186 27.516 81.8256 27.237 82.7976 26.679C83.7696 26.103 84.5256 25.293 85.0656 24.249C85.6236 23.187 85.9026 21.963 85.9026 20.577C85.9026 19.191 85.6236 17.976 85.0656 16.932C84.5256 15.888 83.7696 15.087 82.7976 14.529C81.8256 13.971 80.7186 13.692 79.4766 13.692C78.2346 13.692 77.1276 13.971 76.1556 14.529C75.1836 15.087 74.4186 15.888 73.8606 16.932C73.3206 17.976 73.0506 19.191 73.0506 20.577C73.0506 21.963 73.3206 23.187 73.8606 24.249C74.4186 25.293 75.1836 26.103 76.1556 26.679C77.1276 27.237 78.2346 27.516 79.4766 27.516ZM97.9654 30.175C96.6821 30.175 95.5321 29.9667 94.5154 29.55C93.4988 29.1333 92.6821 28.5167 92.0654 27.7C91.4654 26.8833 91.1488 25.9 91.1154 24.75H95.6654C95.7321 25.4 95.9571 25.9 96.3404 26.25C96.7238 26.5833 97.2238 26.75 97.8404 26.75C98.4738 26.75 98.9738 26.6083 99.3404 26.325C99.7071 26.025 99.8904 25.6167 99.8904 25.1C99.8904 24.6667 99.7404 24.3083 99.4404 24.025C99.1571 23.7417 98.7988 23.5083 98.3654 23.325C97.9488 23.1417 97.3488 22.9333 96.5654 22.7C95.4321 22.35 94.5071 22 93.7904 21.65C93.0738 21.3 92.4571 20.7833 91.9404 20.1C91.4238 19.4167 91.1654 18.525 91.1654 17.425C91.1654 15.7917 91.7571 14.5167 92.9404 13.6C94.1238 12.6667 95.6654 12.2 97.5654 12.2C99.4988 12.2 101.057 12.6667 102.24 13.6C103.424 14.5167 104.057 15.8 104.14 17.45H99.5154C99.4821 16.8833 99.2738 16.4417 98.8904 16.125C98.5071 15.7917 98.0154 15.625 97.4154 15.625C96.8988 15.625 96.4821 15.7667 96.1654 16.05C95.8488 16.3167 95.6904 16.7083 95.6904 17.225C95.6904 17.7917 95.9571 18.2333 96.4904 18.55C97.0238 18.8667 97.8571 19.2083 98.9904 19.575C100.124 19.9583 101.04 20.325 101.74 20.675C102.457 21.025 103.074 21.5333 103.59 22.2C104.107 22.8667 104.365 23.725 104.365 24.775C104.365 25.775 104.107 26.6833 103.59 27.5C103.09 28.3167 102.357 28.9667 101.39 29.45C100.424 29.9333 99.2821 30.175 97.9654 30.175Z" fill="#091D30"/>
<path fill-rule="evenodd" clip-rule="evenodd" d="M77.189 19.9569L80.4093 14.333C78.4875 14.2594 77.0031 14.285 75.3912 15.9792L77.189 19.9569ZM77.7946 22.4739L75.0001 16.5C73.9713 18.4302 73.5872 19.7856 73.9977 22.2957L77.7946 22.4739ZM84 24.5L80.9975 18.604H84.9022C85.3678 21.1004 84.9859 22.5385 84 24.5ZM81.6303 21.0453L78.8035 26.9977C80.7261 27.0315 81.9769 26.7235 83.5636 24.9961L81.6303 21.0453ZM74.2207 23.0214L80.1369 22.9598L78.1649 26.8192C76.1182 26.0289 75.1427 25.0264 74.2207 23.0214ZM78.8855 18.0365L84.7428 17.9686C83.8208 15.9637 83.0467 15.2903 81 14.5L78.8855 18.0365Z" fill="#091D30"/>
</svg>
