<svg width="102" height="41" viewBox="0 0 102 41" fill="none" xmlns="http://www.w3.org/2000/svg">
<path d="M12.475 26.9H5.925L4.875 30H0.4L6.75 12.45H11.7L18.05 30H13.525L12.475 26.9ZM11.375 23.6L9.2 17.175L7.05 23.6H11.375ZM26.3326 30.175C25.0493 30.175 23.8993 29.9667 22.8826 29.55C21.866 29.1333 21.0493 28.5167 20.4326 27.7C19.8326 26.8833 19.516 25.9 19.4826 24.75H24.0326C24.0993 25.4 24.3243 25.9 24.7076 26.25C25.091 26.5833 25.591 26.75 26.2076 26.75C26.841 26.75 27.341 26.6083 27.7076 26.325C28.0743 26.025 28.2576 25.6167 28.2576 25.1C28.2576 24.6667 28.1076 24.3083 27.8076 24.025C27.5243 23.7417 27.166 23.5083 26.7326 23.325C26.316 23.1417 25.716 22.9333 24.9326 22.7C23.7993 22.35 22.8743 22 22.1576 21.65C21.441 21.3 20.8243 20.7833 20.3076 20.1C19.791 19.4167 19.5326 18.525 19.5326 17.425C19.5326 15.7917 20.1243 14.5167 21.3076 13.6C22.491 12.6667 24.0326 12.2 25.9326 12.2C27.866 12.2 29.4243 12.6667 30.6076 13.6C31.791 14.5167 32.4243 15.8 32.5076 17.45H27.8826C27.8493 16.8833 27.641 16.4417 27.2576 16.125C26.8743 15.7917 26.3826 15.625 25.7826 15.625C25.266 15.625 24.8493 15.7667 24.5326 16.05C24.216 16.3167 24.0576 16.7083 24.0576 17.225C24.0576 17.7917 24.3243 18.2333 24.8576 18.55C25.391 18.8667 26.2243 19.2083 27.3576 19.575C28.491 19.9583 29.4076 20.325 30.1076 20.675C30.8243 21.025 31.441 21.5333 31.9576 22.2C32.4743 22.8667 32.7326 23.725 32.7326 24.775C32.7326 25.775 32.4743 26.6833 31.9576 27.5C31.4576 28.3167 30.7243 28.9667 29.7576 29.45C28.791 29.9333 27.6493 30.175 26.3326 30.175ZM47.9885 12.45V15.875H43.3385V30H39.0635V15.875H34.4135V12.45H47.9885ZM59.084 30L55.434 23.375H54.409V30H50.134V12.45H57.309C58.6923 12.45 59.8673 12.6917 60.834 13.175C61.8173 13.6583 62.5507 14.325 63.034 15.175C63.5173 16.0083 63.759 16.9417 63.759 17.975C63.759 19.1417 63.4257 20.1833 62.759 21.1C62.109 22.0167 61.1423 22.6667 59.859 23.05L63.909 30H59.084ZM54.409 20.35H57.059C57.8423 20.35 58.4257 20.1583 58.809 19.775C59.209 19.3917 59.409 18.85 59.409 18.15C59.409 17.4833 59.209 16.9583 58.809 16.575C58.4257 16.1917 57.8423 16 57.059 16H54.409V20.35ZM75.4766 30.189C73.7306 30.189 72.1196 29.784 70.6436 28.974C69.1856 28.146 68.0246 27.003 67.1606 25.545C66.3146 24.069 65.8916 22.413 65.8916 20.577C65.8916 18.741 66.3146 17.094 67.1606 15.636C68.0246 14.178 69.1856 13.044 70.6436 12.234C72.1196 11.406 73.7306 10.992 75.4766 10.992C77.2406 10.992 78.8516 11.406 80.3096 12.234C81.7856 13.044 82.9466 14.178 83.7926 15.636C84.6386 17.094 85.0616 18.741 85.0616 20.577C85.0616 22.413 84.6386 24.069 83.7926 25.545C82.9466 27.003 81.7856 28.146 80.3096 28.974C78.8516 29.784 77.2406 30.189 75.4766 30.189ZM75.4766 27.516C76.7186 27.516 77.8256 27.237 78.7976 26.679C79.7696 26.103 80.5256 25.293 81.0656 24.249C81.6236 23.187 81.9026 21.963 81.9026 20.577C81.9026 19.191 81.6236 17.976 81.0656 16.932C80.5256 15.888 79.7696 15.087 78.7976 14.529C77.8256 13.971 76.7186 13.692 75.4766 13.692C74.2346 13.692 73.1276 13.971 72.1556 14.529C71.1836 15.087 70.4186 15.888 69.8606 16.932C69.3206 17.976 69.0506 19.191 69.0506 20.577C69.0506 21.963 69.3206 23.187 69.8606 24.249C70.4186 25.293 71.1836 26.103 72.1556 26.679C73.1276 27.237 74.2346 27.516 75.4766 27.516ZM93.9654 30.175C92.6821 30.175 91.5321 29.9667 90.5154 29.55C89.4988 29.1333 88.6821 28.5167 88.0654 27.7C87.4654 26.8833 87.1488 25.9 87.1154 24.75H91.6654C91.7321 25.4 91.9571 25.9 92.3404 26.25C92.7238 26.5833 93.2238 26.75 93.8404 26.75C94.4738 26.75 94.9738 26.6083 95.3404 26.325C95.7071 26.025 95.8904 25.6167 95.8904 25.1C95.8904 24.6667 95.7404 24.3083 95.4404 24.025C95.1571 23.7417 94.7988 23.5083 94.3654 23.325C93.9488 23.1417 93.3488 22.9333 92.5654 22.7C91.4321 22.35 90.5071 22 89.7904 21.65C89.0738 21.3 88.4571 20.7833 87.9404 20.1C87.4238 19.4167 87.1654 18.525 87.1654 17.425C87.1654 15.7917 87.7571 14.5167 88.9404 13.6C90.1238 12.6667 91.6654 12.2 93.5654 12.2C95.4988 12.2 97.0571 12.6667 98.2404 13.6C99.4238 14.5167 100.057 15.8 100.14 17.45H95.5154C95.4821 16.8833 95.2738 16.4417 94.8904 16.125C94.5071 15.7917 94.0154 15.625 93.4154 15.625C92.8988 15.625 92.4821 15.7667 92.1654 16.05C91.8488 16.3167 91.6904 16.7083 91.6904 17.225C91.6904 17.7917 91.9571 18.2333 92.4904 18.55C93.0238 18.8667 93.8571 19.2083 94.9904 19.575C96.1238 19.9583 97.0404 20.325 97.7404 20.675C98.4571 21.025 99.0738 21.5333 99.5904 22.2C100.107 22.8667 100.365 23.725 100.365 24.775C100.365 25.775 100.107 26.6833 99.5904 27.5C99.0904 28.3167 98.3571 28.9667 97.3904 29.45C96.4238 29.9333 95.2821 30.175 93.9654 30.175Z" fill="#091D30"/>
<path fill-rule="evenodd" clip-rule="evenodd" d="M73.189 19.957L76.4093 14.3331C74.4875 14.2594 73.0031 14.2851 71.3912 15.9793L73.189 19.957ZM73.7946 22.4739L71.0001 16.5001C69.9713 18.4302 69.5872 19.7856 69.9977 22.2957L73.7946 22.4739ZM80 24.5L76.9975 18.604H80.9022C81.3678 21.1004 80.9859 22.5385 80 24.5ZM77.6303 21.0453L74.8035 26.9977C76.7261 27.0315 77.9769 26.7235 79.5636 24.9962L77.6303 21.0453ZM70.2207 23.0215L76.1369 22.9598L74.1649 26.8192C72.1182 26.0289 71.1427 25.0264 70.2207 23.0215ZM74.8855 18.0366L80.7428 17.9686C79.8208 15.9637 79.0467 15.2903 77 14.5L74.8855 18.0366Z" fill="#091D30"/>
</svg>
